# xmcd CD database file
#
# Track frame offsets:
#	150
#	13793
#	39419
#	53538
#	66598
#	79123
#	94078
#	107013
#	117766
#	130848
#	145557
#	159812
#	170867
#	184793
#	196417
#
# Disc length: 2785 seconds
#
# Revision: 0
# Processed by: cddbd v1.5.1PL2 Copyright (c) Steve Scherf et al.
# Submitted via: CDex 1.51
#
DISCID=c30adf0f
DTITLE=Dizzy Gillespie - Dizzy Gillespie Various CD2
DYEAR=1900
DGENRE=Jazz
TTITLE0=Blue 'N' Boogie
TTITLE1=The Champ
TTITLE2=On The Sunny Side Of The Street
TTITLE3=All The Things You Are
TTITLE4=Groovin' High
TTITLE5=Salt Peanuts
TTITLE6=Dizzy Atmosphere
TTITLE7=Time On My Hands
TTITLE8=The Bluest Blues
TTITLE9=Hot House
TTITLE10=Emanon
TTITLE11=Rays Idea
TTITLE12=Oop Bop Sh' Bam
TTITLE13=Our Delight
TTITLE14=Things To Come
EXTD=
EXTT0=
EXTT1=
EXTT2=
EXTT3=
EXTT4=
EXTT5=
EXTT6=
EXTT7=
EXTT8=
EXTT9=
EXTT10=
EXTT11=
EXTT12=
EXTT13=
EXTT14=
PLAYORDER=
